<?xml version="1.0" standalone="no"?>
<!DOCTYPE svg PUBLIC "-//W3C//DTD SVG 20010904//EN"
 "http://www.w3.org/TR/2001/REC-SVG-20010904/DTD/svg10.dtd">
<svg version="1.0" xmlns="http://www.w3.org/2000/svg"
 width="588.000000pt" height="588.000000pt" viewBox="0 0 588.000000 588.000000"
 preserveAspectRatio="xMidYMid meet">
<metadata>
Created by potrace 1.14, written by Peter Selinger 2001-2017
</metadata>
<g transform="translate(0.000000,588.000000) scale(0.100000,-0.100000)"
fill="#000000" stroke="none">
<path d="M4045 5830 c-27 -16 -80 -53 -116 -82 -59 -48 -102 -85 -273 -241
l-49 -45 -29 36 c-99 129 -115 137 -183 98 -24 -14 -55 -40 -69 -58 -15 -18
-30 -38 -35 -44 -19 -23 -59 -110 -66 -143 -4 -19 -9 -57 -10 -85 -2 -28 -4
-57 -4 -64 -1 -7 -11 -17 -23 -22 -37 -16 -122 -74 -156 -107 -30 -29 119
-132 260 -178 40 -14 78 -25 85 -25 7 0 37 -9 68 -21 37 -14 55 -26 55 -38 0
-10 -27 -36 -62 -61 -94 -65 -169 -129 -208 -177 -19 -24 -40 -49 -46 -56 -19
-22 -53 -133 -47 -155 6 -25 34 -32 145 -37 88 -3 108 -15 108 -61 0 -13 7
-30 16 -38 16 -17 17 -17 124 9 30 8 69 16 85 19 17 3 57 9 90 15 81 14 182 9
227 -11 29 -13 42 -29 64 -75 29 -61 132 -173 159 -173 8 0 15 -4 15 -8 0 -14
152 -78 210 -88 57 -11 56 -9 56 -96 0 -88 5 -120 30 -196 24 -69 103 -232
133 -272 14 -19 33 -44 41 -55 8 -11 56 -61 105 -110 l91 -91 -22 -51 c-39
-89 -45 -178 -18 -275 8 -29 16 -60 18 -69 13 -50 127 -249 148 -257 4 -2 8
-9 8 -15 1 -22 162 -177 184 -177 3 0 22 -12 43 -26 43 -29 147 -78 213 -101
41 -15 173 -21 210 -10 63 18 104 52 80 67 -8 5 -24 0 -42 -13 -25 -19 -43
-22 -121 -22 -96 0 -153 16 -252 71 -22 12 -53 30 -70 38 -121 65 -237 195
-320 361 -85 170 -100 279 -55 398 19 51 24 57 43 51 12 -4 25 -12 29 -18 4
-6 8 -7 8 -2 0 5 6 3 13 -3 15 -12 86 -38 126 -46 14 -3 82 -8 151 -10 230 -8
334 39 332 151 -2 59 -23 88 -89 120 -45 22 -73 28 -153 32 -177 8 -309 -31
-397 -118 l-42 -42 -28 20 c-43 31 -144 141 -197 215 -45 63 -132 241 -141
288 -3 12 -9 36 -14 53 -10 31 -14 78 -12 150 l1 38 58 -6 c31 -3 68 -8 82
-10 14 -2 48 -7 75 -11 28 -3 64 -8 80 -11 48 -6 107 -13 255 -30 94 -10 417
-12 465 -3 28 5 64 11 80 13 91 13 189 70 235 138 29 41 34 58 36 118 8 218
-130 380 -349 405 -84 10 -182 6 -258 -11 -13 -3 -37 -8 -54 -11 -16 -3 -70
-19 -120 -35 -255 -86 -477 -237 -554 -377 l-29 -55 -1 60 c0 78 -29 209 -81
362 -23 68 -40 125 -38 127 2 1 37 20 78 42 138 74 203 112 262 156 183 133
243 213 213 285 -31 73 -224 149 -540 212 -33 7 -67 14 -75 15 -8 2 -20 4 -26
4 -6 1 -20 9 -30 19 -17 14 -20 31 -21 117 -1 183 -16 322 -40 395 -23 70 -49
77 -128 30z m1464 -1374 c24 -4 52 -11 62 -17 11 -5 19 -7 19 -4 0 2 22 -8 48
-25 82 -50 123 -106 150 -207 34 -124 9 -214 -75 -270 -51 -34 -126 -62 -183
-69 -19 -2 -48 -7 -63 -10 -32 -7 -310 -7 -372 0 -58 6 -165 17 -200 21 -31 3
-102 12 -165 21 -19 2 -51 7 -70 9 -19 2 -55 7 -80 11 -25 3 -56 7 -68 9 -31
5 -35 10 -24 32 6 10 21 40 33 68 28 59 131 166 209 216 257 167 550 248 779
215z m-1439 -276 c5 0 15 -6 22 -13 7 -7 58 -45 114 -85 144 -102 208 -127
247 -94 16 14 16 13 6 -17 -11 -31 -12 -32 -57 -25 -129 19 -278 110 -355 215
-26 37 -27 60 0 34 8 -8 18 -15 23 -15z m1305 -934 c47 -10 105 -39 119 -61
10 -15 14 -38 11 -60 -5 -45 -10 -52 -48 -72 -117 -61 -409 -44 -530 30 l-38
23 44 41 c71 65 125 87 267 106 28 4 145 -1 175 -7z"/>
<path d="M1337 5683 c-2 -2 -14 -5 -25 -8 -65 -12 -178 -90 -219 -151 -128
-188 4 -399 427 -681 86 -58 354 -220 438 -265 95 -51 97 -55 57 -103 -79 -94
-149 -147 -285 -213 -116 -57 -335 -110 -434 -104 -24 1 -24 1 -30 51 -12 99
-51 171 -146 267 -35 35 -67 64 -71 64 -4 0 -14 6 -21 14 -30 30 -143 76 -186
76 -115 0 -168 -109 -104 -211 35 -54 115 -127 202 -184 118 -77 186 -105 258
-107 37 -1 37 -3 16 -79 -33 -118 -156 -227 -334 -298 -46 -18 -91 -35 -99
-37 -9 -2 -43 -11 -76 -19 -116 -30 -312 -14 -454 35 -96 34 -196 118 -204
171 -5 28 -25 37 -33 15 -15 -40 48 -122 136 -178 45 -29 135 -61 201 -72 19
-3 45 -8 59 -11 56 -13 236 -12 290 2 30 7 63 15 74 18 61 15 218 85 280 125
110 72 188 175 202 267 3 21 9 42 14 47 4 4 37 10 72 12 75 4 108 9 168 23 25
7 56 14 70 17 73 14 232 90 325 154 61 42 155 138 155 159 0 24 26 29 63 11
94 -46 210 -73 304 -70 74 2 166 25 184 46 6 8 16 14 21 14 5 0 22 12 38 28
20 18 27 31 21 40 -6 11 -18 6 -54 -21 -114 -87 -278 -94 -461 -21 -36 14 -69
30 -71 35 -3 4 1 36 10 69 23 91 21 206 -6 300 -7 25 -13 50 -15 55 -13 61
-112 259 -174 350 -167 244 -347 373 -522 373 -32 0 -59 -2 -61 -5z m186 -55
c129 -49 272 -182 383 -356 77 -120 162 -317 181 -418 15 -83 6 -232 -17 -274
-12 -22 10 -32 -198 89 -227 132 -348 209 -472 300 -85 63 -250 219 -250 238
0 7 -4 13 -9 13 -16 0 -58 115 -60 165 -2 43 4 59 34 105 44 66 111 118 191
148 45 17 161 11 217 -10z m-597 -1057 c58 -26 146 -91 188 -139 17 -20 36
-40 42 -46 30 -31 71 -132 76 -186 3 -33 1 -35 -27 -36 -37 -1 -120 22 -154
44 -164 100 -259 181 -290 246 -24 52 -21 79 13 115 33 35 76 35 152 2z"/>
<path d="M2956 5248 c-37 -57 -117 -333 -131 -453 -2 -16 -6 -41 -9 -55 -18
-79 -25 -339 -13 -475 3 -38 13 -108 22 -155 8 -47 17 -98 20 -115 3 -16 10
-41 15 -55 5 -14 11 -34 13 -45 2 -11 6 -27 9 -35 3 -8 16 -44 29 -80 33 -94
106 -237 125 -244 29 -11 53 -6 67 15 18 24 13 42 -31 126 -32 63 -80 182 -88
218 -2 11 -10 43 -18 70 -53 180 -74 449 -54 685 l5 65 44 -3 c83 -5 164 -5
219 1 49 6 74 10 130 22 8 2 18 4 21 4 13 2 19 33 9 51 -10 20 -10 20 -128 0
-92 -15 -140 -16 -220 -7 -52 7 -62 11 -58 25 5 18 13 57 22 106 2 15 25 89
49 164 25 74 45 142 45 149 0 43 -70 58 -94 21z"/>
<path d="M2570 4381 c-68 -36 -94 -115 -61 -184 35 -73 117 -101 188 -65 56
29 77 62 77 124 -1 111 -107 177 -204 125z"/>
<path d="M3580 4126 c-236 -80 -384 -291 -374 -534 10 -237 185 -446 419 -498
42 -10 179 -11 224 -2 55 12 176 68 211 98 14 12 32 27 40 34 54 40 139 179
154 251 3 17 9 41 11 55 8 36 7 117 0 175 -25 181 -173 354 -360 421 -79 28
-243 28 -325 0z"/>
<path d="M2257 4058 c-141 -46 -242 -149 -281 -288 -29 -105 -22 -194 24 -296
83 -185 284 -283 484 -237 72 17 107 34 166 82 225 180 215 506 -20 683 -94
71 -256 95 -373 56z"/>
<path d="M1613 3555 c-119 -60 -153 -213 -71 -318 54 -68 155 -100 233 -74 80
27 147 117 148 200 0 47 -29 120 -63 156 -61 63 -163 77 -247 36z"/>
<path d="M4341 3317 c-40 -20 -64 -62 -64 -110 0 -147 202 -169 240 -27 26 96
-86 184 -176 137z"/>
<path d="M2919 3256 c-2 -2 -20 -7 -39 -10 -134 -21 -294 -126 -377 -247 -79
-116 -115 -230 -115 -365 2 -471 510 -768 925 -541 31 17 57 35 57 39 0 5 5 8
10 8 13 0 98 83 133 130 118 159 151 399 79 582 -40 104 -81 165 -157 236
-121 114 -237 161 -406 168 -58 2 -108 2 -110 0z"/>
<path d="M1814 3074 c-252 -51 -386 -317 -279 -551 32 -70 117 -154 191 -189
52 -25 71 -28 159 -29 92 0 106 3 165 31 144 68 230 206 225 359 -3 90 -10
118 -43 180 -54 100 -172 187 -273 200 -24 4 -53 8 -64 9 -11 2 -48 -3 -81
-10z"/>
<path d="M4097 3004 c-2 -3 -16 -7 -31 -10 -55 -10 -139 -59 -193 -113 -178
-180 -177 -457 4 -636 51 -49 142 -99 211 -114 40 -9 169 -8 202 2 112 32 206
98 263 187 58 89 68 123 73 236 8 198 -120 375 -314 435 -47 15 -203 24 -215
13z"/>
<path d="M2070 2223 c-39 -7 -113 -35 -131 -50 -8 -7 -19 -13 -22 -13 -4 0
-27 -19 -51 -42 -124 -123 -156 -298 -80 -452 109 -223 398 -290 593 -136 53
42 77 72 110 139 29 56 33 72 36 157 7 171 -99 324 -260 379 -50 17 -151 26
-195 18z"/>
<path d="M3634 2114 c-183 -37 -311 -184 -319 -366 -6 -119 37 -224 122 -304
44 -41 57 -50 123 -78 209 -89 470 42 521 262 26 109 14 198 -39 295 -53 99
-175 181 -287 193 -22 3 -44 6 -50 8 -5 2 -38 -3 -71 -10z"/>
<path d="M2872 1938 c-103 -15 -193 -82 -239 -176 -24 -49 -28 -69 -27 -142 0
-68 5 -95 23 -133 26 -52 77 -108 131 -142 112 -70 283 -48 382 48 34 33 96
137 82 137 -4 0 -2 6 4 13 18 22 8 156 -16 209 -57 129 -199 207 -340 186z"/>
<path d="M2443 1459 c-34 -23 -61 -77 -56 -114 12 -90 98 -137 179 -99 44 21
75 81 67 131 -13 82 -119 128 -190 82z"/>
<path d="M3373 1325 c-74 -22 -137 -76 -176 -150 -16 -30 -21 -58 -21 -115 0
-41 2 -82 5 -90 51 -156 218 -238 371 -183 191 68 248 320 105 463 -74 74
-188 104 -284 75z"/>
<path d="M2730 1252 c-251 -83 -268 -426 -27 -532 70 -31 160 -29 231 5 181
86 219 326 73 462 -75 70 -185 96 -277 65z"/>
<path d="M3905 1255 c-22 -8 -41 -15 -42 -15 -2 0 -14 -18 -28 -40 -77 -123
49 -263 180 -200 99 48 106 174 14 242 -34 25 -78 30 -124 13z"/>
<path d="M3754 760 c-87 -24 -157 -113 -157 -200 0 -40 14 -100 24 -100 5 0 9
-6 9 -13 0 -20 60 -74 100 -91 44 -18 135 -15 175 6 60 32 111 105 119 170 6
49 -26 133 -64 173 -49 51 -137 74 -206 55z"/>
<path d="M3153 711 c-108 -49 -153 -177 -102 -287 76 -160 318 -154 385 10 74
180 -106 357 -283 277z"/>
<path d="M3554 369 c-120 -35 -134 -204 -21 -258 51 -25 73 -26 120 -6 64 27
102 114 77 179 -12 32 -68 86 -89 86 -9 0 -25 2 -36 4 -11 3 -34 0 -51 -5z"/>
</g>
</svg>
